<svg width="22" height="22" viewBox="0 0 22 22" fill="none" xmlns="http://www.w3.org/2000/svg">
<path id="Bag-icon" fill-rule="evenodd" clip-rule="evenodd" d="M11 0C10.4231 0 9.74662 0.110697 9.12033 0.310108C8.50924 0.504682 7.83309 0.819309 7.3465 1.30167C6.50445 2.13641 6.02979 3.27041 6.02979 4.4547V5.26318H2.97185C2.19656 5.26318 1.44521 5.55845 0.885032 6.09618C0.323467 6.63525 0 7.37531 0 8.15604V19.1072C0 19.8879 0.323467 20.628 0.885032 21.167C1.44521 21.7048 2.19656 22 2.97185 22H19.0281C19.8034 22 20.5548 21.7048 21.115 21.167C21.6765 20.628 22 19.8879 22 19.1072V8.15604C22 7.37531 21.6765 6.63525 21.115 6.09618C20.5548 5.55845 19.8034 5.26318 19.0281 5.26318H16V4.4547C16 3.27041 15.5253 2.13641 14.6833 1.30167C14.1935 0.816133 13.506 0.502145 12.8908 0.30892C12.2586 0.110382 11.576 0 11 0ZM14 7.26318V11.0881C14 11.6404 14.4477 12.0881 15 12.0881C15.5523 12.0881 16 11.6404 16 11.0881V7.26318H19.0281C19.2988 7.26318 19.5505 7.36677 19.7299 7.539C19.908 7.70989 20 7.93274 20 8.15604V19.1072C20 19.3305 19.908 19.5533 19.7299 19.7242C19.5505 19.8964 19.2988 20 19.0281 20H2.97185C2.70121 20 2.44946 19.8964 2.27005 19.7242C2.09203 19.5533 2 19.3305 2 19.1072V8.15604C2 7.93274 2.09203 7.70989 2.27005 7.539C2.44946 7.36677 2.70121 7.26318 2.97185 7.26318H6.02979V11.0881C6.02979 11.6404 6.4775 12.0881 7.02979 12.0881C7.58207 12.0881 8.02979 11.6404 8.02979 11.0881V7.26318H14ZM14 5.26318V4.4547C14 3.8065 13.7403 3.18307 13.2752 2.72204C13.1115 2.5597 12.7714 2.36776 12.2915 2.21703C11.8285 2.07161 11.3483 2 11 2C10.6526 2 10.1811 2.07129 9.72712 2.21584C9.25795 2.36522 8.9215 2.55653 8.75453 2.72204C8.28946 3.18308 8.02979 3.8065 8.02979 4.4547V5.26318H14Z" fill="#E8E1DC"/>
</svg>
