<svg width="86" height="86" viewBox="0 0 86 86" fill="none" xmlns="http://www.w3.org/2000/svg">
<path d="M14.6467 54.8238C11.9307 40.4296 21.6222 11.2539 41.5723 11.2539C63.8281 11.2539 74.8721 37.4571 70.4629 55.0937C67.4394 67.1875 52.3222 76.5938 38.8007 71.8906C29.0585 68.502 26.623 58.7051 26.623 52.9941C26.623 46.4299 28.3027 40.5645 33.0058 33.9297C33.3979 33.4825 33.9473 32.9407 34.5529 32.3777C36.9582 30.1418 40.9397 29.9099 42.8274 32.5972C42.987 32.8244 42.9203 33.1315 42.7044 33.3059C35.9834 38.7368 34.7637 46.0679 35.3574 52.9941C35.9621 60.0488 40.9843 63.9961 43.0839 64.416C46.6113 65.6477 57.9208 65.9277 60.9727 55.0937C63.6227 45.686 60.8887 21.332 41.5723 21.332C26.1192 21.332 21.528 52.3222 22.4238 62.1483L17.7147 59.065C16.1923 58.0682 14.9841 56.6119 14.6467 54.8238Z" fill="url(#paint0_linear_51_11)"/>
<path fill-rule="evenodd" clip-rule="evenodd" d="M86 43C86 19.2518 66.7482 0 43 0C19.2518 0 0 19.2518 0 43C0 66.7482 19.2518 86 43 86C66.7482 86 86 66.7482 86 43ZM77.6016 43C77.6016 23.8901 62.1099 8.39844 43 8.39844C23.8901 8.39844 8.39844 23.8901 8.39844 43C8.39844 62.1099 23.8901 77.6016 43 77.6016C62.1099 77.6016 77.6016 62.1099 77.6016 43Z" fill="url(#paint1_linear_51_11)"/>
<defs>
<linearGradient id="paint0_linear_51_11" x1="0" y1="43" x2="86" y2="43" gradientUnits="userSpaceOnUse">
<stop stop-color="#EC6D69"/>
<stop offset="1" stop-color="#ECA06F"/>
</linearGradient>
<linearGradient id="paint1_linear_51_11" x1="0" y1="43" x2="86" y2="43" gradientUnits="userSpaceOnUse">
<stop stop-color="#EC6D69"/>
<stop offset="1" stop-color="#ECA06F"/>
</linearGradient>
</defs>
</svg>
