<svg width="18" height="15" viewBox="0 0 18 15" fill="none" xmlns="http://www.w3.org/2000/svg">
<path id="Lupa-icon" fill-rule="evenodd" clip-rule="evenodd" d="M11.5044 10.8521C10.3263 12.4211 8.49373 13.4293 6.43543 13.4293C2.88124 13.4293 0 10.4231 0 6.71466C0 3.00626 2.88124 0 6.43543 0C9.98962 0 12.8709 3.00626 12.8709 6.71466C12.8709 7.54486 12.7265 8.33987 12.4624 9.07384L17.2184 12.6183L16.0886 14.2687L11.5044 10.8521ZM10.8709 6.71466C10.8709 9.39941 8.80585 11.4293 6.43543 11.4293C4.06502 11.4293 2 9.39941 2 6.71466C2 4.02992 4.06502 2 6.43543 2C8.80585 2 10.8709 4.02992 10.8709 6.71466Z" fill="#E8E1DC"/>
</svg>
