<svg width="30" height="18" viewBox="0 0 30 18" fill="none" xmlns="http://www.w3.org/2000/svg">
<path d="M0 0.75C0 0.335787 0.335815 0 0.75 0H29.25C29.6642 0 30 0.335787 30 0.75C30 1.16421 29.6642 1.5 29.25 1.5H0.75C0.335815 1.5 0 1.16421 0 0.75Z" fill="#EC6D69"/>
<path d="M11 8.75C11 8.33579 11.3358 8 11.75 8H29.25C29.6642 8 30 8.33579 30 8.75C30 9.16421 29.6642 9.5 29.25 9.5H11.75C11.3358 9.5 11 9.16421 11 8.75Z" fill="#EC6D69"/>
<path d="M0.75 16C0.335815 16 0 16.3358 0 16.75C0 17.1642 0.335815 17.5 0.75 17.5H29.25C29.6642 17.5 30 17.1642 30 16.75C30 16.3358 29.6642 16 29.25 16H0.75Z" fill="#EC6D69"/>
</svg>
