<svg width="22" height="22" viewBox="0 0 22 22" fill="none" xmlns="http://www.w3.org/2000/svg">
<path id="User-icon" fill-rule="evenodd" clip-rule="evenodd" d="M22 11C22 17.0751 17.0751 22 11 22C4.92487 22 0 17.0751 0 11C0 4.92487 4.92487 0 11 0C17.0751 0 22 4.92487 22 11ZM15.4488 18.8254C14.1367 19.5729 12.6182 20 11 20C9.38187 20 7.86347 19.573 6.55136 18.8254C6.67239 18.1204 6.99906 17.5883 7.43862 17.2057C8.01647 16.7028 8.8635 16.3967 9.87799 16.3967H12.1222C13.1367 16.3967 13.9837 16.7028 14.5616 17.2057C15.0011 17.5883 15.3278 18.1204 15.4488 18.8254ZM17.1672 17.5548C16.8902 16.8236 16.4486 16.1967 15.8746 15.6971C15.2047 15.1141 14.3863 14.7311 13.4998 14.5401C13.9356 14.2871 14.3354 13.9685 14.6852 13.5933C15.694 12.5114 16.0342 11.1259 16.0342 10.1184C16.0342 9.10891 15.6946 7.72293 14.6852 6.64044C13.7333 5.6195 12.411 5.01709 11.0001 5.01709C9.58917 5.01709 8.26692 5.6195 7.31498 6.64044C6.30044 7.72854 5.97095 9.11839 5.97095 10.1184C5.97095 11.1164 6.30101 12.5058 7.31498 13.5933C7.66479 13.9685 8.0646 14.2871 8.50044 14.5401C7.61394 14.7311 6.79546 15.1141 6.12557 15.6971C5.55157 16.1967 5.10997 16.8237 4.8329 17.5549C3.08892 15.9135 2 13.5839 2 11C2 6.02944 6.02944 2 11 2C15.9706 2 20 6.02944 20 11C20 13.5839 18.9111 15.9134 17.1672 17.5548ZM7.97095 10.1184C7.97095 9.49383 8.18837 8.63648 8.77777 8.00435C9.36718 7.37222 10.1666 7.01709 11.0001 7.01709C11.8336 7.01709 12.633 7.37222 13.2224 8.00435C13.8118 8.63648 14.0342 9.49383 14.0342 10.1184C14.0342 10.7399 13.8118 11.5972 13.2224 12.2294C12.633 12.8615 11.8336 13.2166 11.0001 13.2166C10.1666 13.2166 9.36718 12.8615 8.77777 12.2294C8.18837 11.5972 7.97095 10.7399 7.97095 10.1184Z" fill="#E8E1DC"/>
</svg>
