<svg width="15" height="69" viewBox="0 0 15 69" fill="none" xmlns="http://www.w3.org/2000/svg">
<path d="M0.00012207 0L15.0001 0L15.0001 69H0.00012207L0.00012207 0Z" fill="url(#paint0_linear_18_12)"/>
<path d="M11.7001 49.7293H5.22012V48.3341L9.73812 44.495H5.22012V43.1637H11.7001V44.5589L7.16412 48.4162H11.7001L11.7001 49.7293Z" fill="white"/>
<path d="M11.7001 40.8472C11.7001 41.0903 11.6431 41.3122 11.5291 41.5129C11.4091 41.7074 11.2531 41.8655 11.0611 41.987C10.8631 42.1026 10.6441 42.1603 10.4041 42.1603H6.51612C6.27612 42.1603 6.06012 42.1026 5.86812 41.987C5.67012 41.8655 5.51412 41.7074 5.40012 41.5129C5.28012 41.3122 5.22012 41.0903 5.22012 40.8472L5.22012 36.9078C5.22012 36.6707 5.28012 36.4549 5.40012 36.2603C5.51412 36.0597 5.67012 35.8986 5.86812 35.777C6.06012 35.6555 6.27612 35.5947 6.51612 35.5947H10.4041C10.6441 35.5947 10.8631 35.6555 11.0611 35.777C11.2531 35.8986 11.4091 36.0597 11.5291 36.2603C11.6431 36.4549 11.7001 36.6707 11.7001 36.9078L11.7001 40.8472ZM10.3951 40.7925L10.3951 36.9807C10.3951 36.9625 10.3921 36.9503 10.3861 36.9443C10.3741 36.9321 10.3591 36.926 10.3411 36.926H6.57912C6.56112 36.926 6.54912 36.9321 6.54312 36.9443C6.53112 36.9503 6.52512 36.9625 6.52512 36.9807V40.7925C6.52512 40.8107 6.53112 40.8259 6.54312 40.8381C6.54912 40.8441 6.56112 40.8472 6.57912 40.8472H10.3411C10.3591 40.8472 10.3741 40.8441 10.3861 40.8381C10.3921 40.8259 10.3951 40.8107 10.3951 40.7925Z" fill="white"/>
<path d="M11.7001 31.291L5.22012 35.0936V33.5708L10.0891 30.7256L5.22012 27.8805V26.3577L11.7001 30.1603V31.291Z" fill="white"/>
<path d="M11.7001 24.5061C11.7001 24.7493 11.6431 24.9712 11.5291 25.1718C11.4091 25.3663 11.2531 25.5244 11.0611 25.646C10.8631 25.7615 10.6441 25.8192 10.4041 25.8192H6.51612C6.27612 25.8192 6.06012 25.7615 5.86812 25.646C5.67012 25.5244 5.51412 25.3663 5.40012 25.1718C5.28012 24.9712 5.22012 24.7493 5.22012 24.5061V20.5667C5.22012 20.3296 5.28012 20.1138 5.40012 19.9193C5.51412 19.7187 5.67012 19.5576 5.86812 19.436C6.06012 19.3144 6.27612 19.2536 6.51612 19.2536H10.4041C10.6441 19.2536 10.8631 19.3144 11.0611 19.436C11.2531 19.5576 11.4091 19.7187 11.5291 19.9193C11.6431 20.1138 11.7001 20.3296 11.7001 20.5667V24.5061ZM10.3951 24.4514V20.6397C10.3951 20.6214 10.3921 20.6093 10.3861 20.6032C10.3741 20.591 10.3591 20.585 10.3411 20.585H6.57912C6.56112 20.585 6.54912 20.591 6.54312 20.6032C6.53112 20.6093 6.52512 20.6214 6.52512 20.6397V24.4514C6.52512 24.4696 6.53112 24.4848 6.54312 24.497C6.54912 24.5031 6.56112 24.5061 6.57912 24.5061H10.3411C10.3591 24.5061 10.3741 24.5031 10.3861 24.497C10.3921 24.4848 10.3951 24.4696 10.3951 24.4514Z" fill="white"/>
<defs>
<linearGradient id="paint0_linear_18_12" x1="7.50012" y1="0" x2="7.50012" y2="69" gradientUnits="userSpaceOnUse">
<stop stop-color="#EC6D69"/>
<stop offset="1" stop-color="#ECA06F"/>
</linearGradient>
</defs>
</svg>
